<svg version="1.1" xmlns="http://www.w3.org/2000/svg" style="display: block;" viewBox="0 0 2048 2048" width="1000" height="1000" preserveAspectRatio="none">
<path transform="translate(0,0)" fill="rgb(109,173,45)" d="M 1012.9 848.512 C 988.627 829.859 967.882 797.703 956.924 769.533 C 937.81 720.117 939.129 665.13 960.59 616.687 C 983.676 564.849 1033.23 519.361 1086.11 499.596 C 1136.05 480.988 1191.3 482.771 1239.93 504.56 C 1288.32 526.722 1325.86 567.279 1344.23 617.232 C 1364.2 671.222 1360.25 722.361 1336.53 774.071 C 1347.46 784.601 1365.85 804.351 1372.71 818.099 C 1402.75 860.822 1416.43 926.249 1407.48 977.263 C 1397.84 1029.69 1368.1 1076.28 1324.6 1107.09 C 1280.18 1138.13 1225.29 1150.37 1171.89 1141.12 C 1138.9 1135.25 1104.62 1119.25 1078.58 1098.19 C 1070.05 1105.73 1057.38 1115.72 1046.99 1120.63 L 1046.98 1105.74 L 1047.05 1066.19 C 1046.28 1038.73 1047.38 1011.18 1046.54 983.943 C 1034.66 982.665 1015.36 984.186 1007.04 982.646 L 1006.11 981.091 C 1003.49 971.848 1001.11 961.629 1000.25 952.06 C 993.769 921.819 1001.89 877.023 1012.9 848.512 z M 1091.27 774.502 C 1095.05 781.417 1097.51 786.325 1100.64 793.535 C 1085.51 807.964 1074.05 819.779 1064.35 838.759 C 1086.77 848.487 1095.68 851.273 1119.49 854.064 C 1121.9 865.909 1122.94 871.897 1122.15 883.87 L 1120.79 896.155 C 1091.19 891.545 1076.12 886.031 1049.15 874.079 C 1039.78 917.69 1041.43 954.018 1066.17 992.155 C 1066.61 992.829 1067.06 993.499 1067.51 994.166 C 1071.61 999.408 1076.04 1005.33 1080.29 1010.38 L 1082.54 1012.39 C 1100.07 987.58 1111.36 969.013 1120.02 939.084 C 1136.11 884.045 1129.09 824.83 1100.59 775.074 C 1077.67 734.191 1032.57 692.864 986.88 680.145 C 987.91 665.276 988.91 659.34 992.947 644.95 L 996.658 636.983 C 1065.34 661.814 1120.39 708.895 1151.42 775.677 C 1182.4 841.086 1185.61 916.24 1160.33 984.052 C 1150.92 1009.27 1142.39 1023.06 1128.33 1045.15 C 1157.79 1055.67 1176.72 1062.32 1209.47 1059.68 C 1252.8 1056.28 1292.9 1035.43 1320.57 1001.91 C 1352.13 964.283 1359.79 923.245 1355.65 875.944 C 1354.58 872.846 1352.52 862.722 1351.25 858.32 C 1344.98 836.739 1333.94 820.659 1318.68 804.323 C 1286.17 847.485 1240.12 878.5 1187.91 892.407 C 1188.6 873.874 1187.39 864.757 1183.53 846.718 C 1187.47 845.382 1191.38 843.969 1195.27 842.478 C 1230.5 828.566 1251.26 802.961 1266.13 768.748 C 1234.77 753.863 1196.13 753.568 1162.85 761.692 C 1160.72 754.316 1159.59 751.369 1156.39 744.381 C 1153.9 739.87 1149.78 733.97 1146.83 729.516 C 1188.56 719.786 1226.44 719.153 1268.04 733.703 C 1271.48 734.907 1271.86 735.25 1275.65 736.227 L 1276.46 734.308 C 1282.29 688.578 1274.21 648.226 1245.45 611.074 C 1219.48 577.722 1181.28 556.115 1139.31 551.05 C 1055.49 540.583 987.164 595.797 978.026 679.441 C 973.074 721.365 985.322 763.506 1011.97 796.243 C 1017.56 803.089 1023.78 809.299 1030.18 815.36 C 1039.23 797.923 1065.34 772.176 1081.63 761.381 C 1084.8 765.479 1088.17 770.279 1091.27 774.502 z"/>
<path transform="translate(0,0)" fill="rgb(39,74,220)" d="M 996.658 636.983 C 1065.34 661.814 1120.39 708.895 1151.42 775.677 C 1182.4 841.086 1185.61 916.24 1160.33 984.052 C 1150.92 1009.27 1142.39 1023.06 1128.33 1045.15 L 1111.71 1035.48 C 1100.56 1028.48 1092.32 1021.05 1082.54 1012.39 C 1100.07 987.58 1111.36 969.013 1120.02 939.084 C 1136.11 884.045 1129.09 824.83 1100.59 775.074 C 1077.67 734.191 1032.57 692.864 986.88 680.145 C 987.91 665.276 988.91 659.34 992.947 644.95 L 996.658 636.983 z"/>
<path transform="translate(0,0)" fill="rgb(7,35,150)" d="M 996.658 636.983 C 1065.34 661.814 1120.39 708.895 1151.42 775.677 C 1182.4 841.086 1185.61 916.24 1160.33 984.052 C 1150.92 1009.27 1142.39 1023.06 1128.33 1045.15 L 1111.71 1035.48 C 1115.8 1030.12 1119.58 1023.38 1122.75 1017.45 C 1156.06 954.418 1163.05 880.762 1142.19 812.592 C 1123.82 753.031 1085.32 701.708 1033.28 667.41 C 1019.6 658.38 1007.3 652.453 992.947 644.95 L 996.658 636.983 z"/>
<path transform="translate(0,0)" fill="rgb(222,50,2)" d="M 1266.13 768.748 C 1288.95 779.938 1299.55 787.005 1318.68 804.323 C 1286.17 847.485 1240.12 878.5 1187.91 892.407 C 1188.6 873.874 1187.39 864.757 1183.53 846.718 C 1187.47 845.382 1191.38 843.969 1195.27 842.478 C 1230.5 828.566 1251.26 802.961 1266.13 768.748 z"/>
<path transform="translate(0,0)" fill="rgb(222,50,2)" d="M 1064.35 838.759 C 1086.77 848.487 1095.68 851.273 1119.49 854.064 C 1121.9 865.909 1122.94 871.897 1122.15 883.87 L 1120.79 896.155 C 1091.19 891.545 1076.12 886.031 1049.15 874.079 C 1051.26 868.829 1053.14 863.439 1055.06 858.113 C 1057.97 850.796 1060.65 845.751 1064.35 838.759 z"/>
<path transform="translate(0,0)" fill="rgb(193,37,38)" d="M 1049.15 874.079 C 1051.26 868.829 1053.14 863.439 1055.06 858.113 C 1070.13 870.368 1103.55 879.829 1122.15 883.87 L 1120.79 896.155 C 1091.19 891.545 1076.12 886.031 1049.15 874.079 z"/>
<path transform="translate(0,0)" fill="rgb(222,50,2)" d="M 1012.9 848.512 C 988.627 829.859 967.882 797.703 956.924 769.533 C 937.81 720.117 939.129 665.13 960.59 616.687 C 983.676 564.849 1033.23 519.361 1086.11 499.596 C 1136.05 480.988 1191.3 482.771 1239.93 504.56 C 1288.32 526.722 1325.86 567.279 1344.23 617.232 C 1364.2 671.222 1360.25 722.361 1336.53 774.071 C 1333.07 770.452 1327.78 766.627 1323.8 763.623 C 1309.39 752.73 1293.47 744.473 1277.3 736.561 C 1277.02 735.81 1276.74 735.059 1276.46 734.308 C 1282.29 688.578 1274.21 648.226 1245.45 611.074 C 1219.48 577.722 1181.28 556.115 1139.31 551.05 C 1055.49 540.583 987.164 595.797 978.026 679.441 C 973.074 721.365 985.322 763.506 1011.97 796.243 C 1017.56 803.089 1023.78 809.299 1030.18 815.36 C 1023.17 827.207 1018.01 835.643 1012.9 848.512 z"/>
<path transform="translate(0,0)" fill="rgb(46,127,73)" d="M 1355.65 875.944 C 1360.3 879.637 1361.94 892.175 1362.63 898.109 C 1367.71 940.542 1355.43 983.228 1328.58 1016.47 C 1301.87 1049.92 1262.79 1071.18 1220.2 1075.41 C 1178.14 1079.81 1136.07 1067.25 1103.32 1040.5 C 1093.79 1032.63 1085.13 1023.75 1077.5 1014.03 L 1080.29 1010.38 L 1082.54 1012.39 C 1092.32 1021.05 1100.56 1028.48 1111.71 1035.48 L 1128.33 1045.15 C 1157.79 1055.67 1176.72 1062.32 1209.47 1059.68 C 1252.8 1056.28 1292.9 1035.43 1320.57 1001.91 C 1352.13 964.283 1359.79 923.245 1355.65 875.944 z"/>
<path transform="translate(0,0)" fill="rgb(46,127,73)" d="M 1146.83 729.516 C 1188.56 719.786 1226.44 719.153 1268.04 733.703 C 1271.48 734.907 1271.86 735.25 1275.65 736.227 L 1276.46 734.308 C 1276.74 735.059 1277.02 735.81 1277.3 736.561 C 1293.47 744.473 1309.39 752.73 1323.8 763.623 C 1327.78 766.627 1333.07 770.452 1336.53 774.071 C 1347.46 784.601 1365.85 804.351 1372.71 818.099 C 1366.24 815.461 1349.79 795.698 1342.85 789.738 C 1287.18 741.927 1227.78 730.374 1156.39 744.381 C 1153.9 739.87 1149.78 733.97 1146.83 729.516 z"/>
<path transform="translate(0,0)" fill="rgb(46,127,73)" d="M 1081.63 761.381 C 1084.8 765.479 1088.17 770.279 1091.27 774.502 C 1044.03 812.193 1013.32 854.978 1006.33 916.788 C 1005.48 923.935 1004.96 931.117 1004.76 938.311 C 1001.07 943.625 1005.17 951.051 1000.25 952.06 C 993.769 921.819 1001.89 877.023 1012.9 848.512 C 1018.01 835.643 1023.17 827.207 1030.18 815.36 C 1039.23 797.923 1065.34 772.176 1081.63 761.381 z"/>
<path transform="translate(0,0)" fill="rgb(7,35,150)" d="M 1067.86 1088.49 L 1078.58 1098.19 C 1070.05 1105.73 1057.38 1115.72 1046.99 1120.63 L 1046.98 1105.74 C 1054.33 1101.35 1061.8 1094.52 1067.86 1088.49 z"/>
<path transform="translate(0,0)" fill="rgb(39,74,220)" d="M 1047.05 1066.19 C 1053.58 1073.18 1061.14 1082.28 1067.86 1088.49 C 1061.8 1094.52 1054.33 1101.35 1046.98 1105.74 L 1047.05 1066.19 z"/>
<path transform="translate(0,0)" fill="rgb(57,128,52)" d="M 1000.25 952.06 C 1005.17 951.051 1001.07 943.625 1004.76 938.311 C 1004.83 946.192 1007.07 976.496 1006.11 981.091 C 1003.49 971.848 1001.11 961.629 1000.25 952.06 z"/>
<path transform="translate(0,0)" fill="rgb(57,128,52)" d="M 1067.51 994.166 C 1071.61 999.408 1076.04 1005.33 1080.29 1010.38 L 1077.5 1014.03 C 1072.96 1009.12 1068.45 1000.81 1067.51 994.166 z"/>
<path transform="translate(0,0)" fill="rgb(39,74,220)" d="M 1016.15 352.481 C 1056.84 352.184 1086.43 353.253 1126.56 359.026 C 1299.09 383.708 1454.72 475.998 1559.13 615.548 C 1663.86 756.164 1708.34 932.676 1682.73 1106.13 C 1666.8 1211.29 1625.24 1310.91 1561.71 1396.21 C 1553.44 1407.22 1534.79 1431.86 1524.35 1439.62 C 1529.51 1430.21 1539.68 1416.6 1546.08 1407.42 C 1557.52 1391.22 1568.23 1374.52 1578.16 1357.35 C 1733.22 1083.91 1682.31 746.803 1444.04 538.859 C 1316.41 427.031 1149.8 370.091 980.428 380.413 C 802.109 392.747 649.456 472.662 532.683 606.647 C 454.281 704.02 405.69 803.666 388.111 928.742 C 363.249 1100.05 407.771 1274.2 511.803 1412.56 C 538.199 1447.52 568.222 1479.6 601.369 1508.24 C 610.869 1516.51 639.005 1541.13 649.679 1545.56 C 698.915 1565.99 751.161 1529.1 789.196 1501.48 C 802.899 1491.53 825.426 1474.06 841.566 1472.83 C 852.677 1471.99 874.023 1488.5 887.495 1493.17 C 910.537 1501.17 935.739 1508.92 959.868 1512.27 C 938.772 1557.1 917.823 1609.44 897.97 1655.48 C 869.444 1650.94 833.118 1643.95 806.024 1634.91 C 554.748 1550.99 373.187 1302.29 365.825 1037.95 C 359.468 860.112 425.239 687.25 548.204 558.616 C 670.027 429.643 838.76 355.314 1016.15 352.481 z"/>
<path transform="translate(0,0)" fill="rgb(222,50,2)" d="M 570.946 1224.24 L 1521.8 1223.98 C 1522 1230.73 1521.91 1237.88 1521.92 1244.67 L 1496.31 1244.88 C 1497.43 1259.39 1499.05 1319.31 1493.14 1329.94 C 1489.36 1336.75 1482.38 1340.96 1474.93 1342.69 C 1459.93 1346.18 1443.32 1341.15 1432.42 1330.49 C 1428.32 1326.48 1424.68 1321.39 1419.83 1318.32 C 1390.48 1339.36 1508.47 1386.64 1519.86 1389.57 C 1529.03 1391.93 1532.01 1410.84 1516.14 1411.04 C 1501.08 1411.23 1487.24 1401.18 1473.77 1395.38 C 1453.11 1386.34 1444.64 1377.37 1426.23 1364.21 C 1400.64 1345.91 1371.56 1287.36 1420.82 1279.06 C 1435.15 1276.64 1456.7 1291.5 1468.09 1302.47 C 1467.69 1283.3 1467.53 1264.14 1467.61 1244.97 C 1429.68 1244.3 1390.17 1244.8 1352.1 1244.79 L 1352 1325.86 C 1351.96 1359.09 1344 1387.84 1384.54 1389.38 C 1389.32 1389.56 1389.09 1396.35 1386.78 1400.2 C 1373.77 1410.56 1343.92 1394.15 1334.38 1383.03 C 1329.49 1377.36 1326.08 1370.56 1324.46 1363.26 C 1322.03 1352.53 1323.08 1308.08 1323.81 1295.37 C 1309.08 1297.42 1236.03 1304.93 1236.04 1326.21 C 1236.05 1361.8 1283.03 1373.8 1302.61 1393.61 C 1304.26 1395.27 1304.35 1398.6 1303.92 1400.83 C 1293.14 1417.1 1266.52 1393.6 1257.21 1386.22 C 1236.53 1369.83 1197.78 1332.08 1211.98 1301.89 C 1195.54 1298.74 1180.51 1295.7 1163.76 1294.65 C 1174.09 1309.91 1183.43 1335.89 1176.18 1353.91 C 1172.6 1362.83 1165.47 1369.87 1156.49 1373.32 C 1146.93 1377.04 1136.24 1376.61 1127.01 1372.11 C 1107.96 1363.07 1095.77 1341.07 1088.92 1322.07 C 1083.72 1299.24 1091.58 1283.57 1113.41 1274.92 C 1155.18 1258.36 1196.84 1277.11 1238.33 1280.87 C 1259.32 1282.77 1303.38 1275.34 1323.67 1267.83 C 1323 1262.09 1323.35 1250.83 1323.66 1244.91 C 1231.12 1243.81 1135.7 1244.37 1043.08 1244.75 L 1043.13 1373.14 C 1051.55 1387.67 1062.18 1386.88 1077.48 1392.08 C 1078.89 1396.53 1079.26 1398.02 1076.33 1401.87 C 1060.08 1410.49 1017.93 1389.68 1015.31 1370.45 C 1013.01 1353.6 1013.74 1335.49 1013.76 1318.35 L 1013.64 1244.93 L 957.277 1244.96 C 959.044 1286.17 956.153 1328.79 957.957 1370.13 C 958.802 1389.48 987.139 1385.54 992.665 1394.35 C 992.949 1397.81 992.765 1397.62 991.105 1400.74 C 978.974 1410.86 949.924 1395.29 941.139 1385.36 C 935.663 1379.17 931.855 1371.69 930.074 1363.62 C 927.308 1351.44 928.279 1315.04 928.388 1301.04 C 928.513 1284.99 927.684 1260.27 928.782 1244.8 L 875.105 1244.56 C 877.54 1248.31 879.88 1252.12 882.123 1255.99 C 892.65 1274.09 899.688 1295.16 893.955 1316.07 C 889.933 1330.75 880.188 1343.19 866.904 1350.62 C 841.605 1364.49 808.819 1354.69 796.454 1328.55 C 791.003 1319.02 788.154 1296.38 793.496 1286.69 C 821.512 1235.86 864.063 1287.92 844.081 1330.22 C 860.252 1321.86 866.101 1312.39 869.565 1294.51 C 873.8 1272.67 867.382 1262.21 855.33 1244.88 C 818.233 1244.72 779.254 1243.96 742.302 1244.8 C 742.694 1285.21 741.316 1325.83 742.6 1366.2 C 742.955 1377.39 749.34 1382.58 759.38 1385.81 C 766.232 1388.02 776.459 1386.99 781.061 1392.46 C 783.688 1406.83 763.055 1404.11 755.287 1402.24 C 731.385 1396.49 719.326 1385.43 713.643 1361.69 C 699.157 1369.62 675.768 1381.44 658.914 1377.44 C 621.171 1368.48 586.62 1315.33 592.912 1276.97 C 593.8 1271.56 599.035 1262.16 603.769 1259.93 C 620.27 1252.14 622.544 1282.82 636.098 1285.04 C 642.352 1285.91 650.12 1283.26 654.588 1279.66 C 658.898 1276.22 661.653 1271.19 662.242 1265.71 C 663.244 1256.16 658.905 1251.94 653.375 1244.9 C 625.921 1244.72 598.466 1244.73 571.013 1244.94 L 570.946 1224.24 z M 649.998 1355.63 C 677.571 1358.66 694.859 1346.55 713.005 1327.49 L 713.155 1244.81 C 700.378 1244.8 684.394 1245.25 671.897 1244.73 C 679.152 1257.81 685.206 1271.7 679.969 1287 C 671.215 1312.57 647.996 1320.41 624.719 1307.25 C 626.667 1327.13 630.26 1345.99 649.998 1355.63 z M 1131.05 1362.68 C 1163.54 1359.32 1160.08 1315.98 1137 1299.01 C 1118.09 1308.85 1103.23 1328.48 1114.26 1350.95 C 1117.36 1357.25 1124.55 1360.68 1131.05 1362.68 z"/>
<path transform="translate(0,0)" fill="rgb(39,74,220)" d="M 1102.49 1482.5 C 1120.64 1481.29 1140.42 1483.21 1158.71 1484.52 C 1113.63 1499.35 1106.5 1513.34 1082.28 1553.85 C 1073.45 1568.61 1035.96 1602.39 1060.96 1614.23 C 1087.42 1625.71 1127.81 1609.45 1145.54 1588.57 C 1163.74 1567.14 1167.59 1571.03 1192.98 1563.95 C 1220.94 1600.67 1255.84 1614.79 1296.47 1629.71 C 1299.1 1630.68 1318.05 1646.2 1321.89 1649.13 C 1340.36 1663.28 1358.99 1677.2 1377.78 1690.91 C 1387.19 1697.72 1411.14 1711.97 1417.71 1720.3 C 1420.05 1723.27 1420.83 1726.92 1420.21 1730.63 C 1419.28 1736.2 1415.09 1740.74 1410.64 1743.9 C 1399.2 1752.03 1384.8 1754.14 1371.39 1750.23 C 1353.5 1745.02 1284.66 1692.95 1264.56 1678.39 C 1260.4 1675.37 1250.44 1666.34 1245.52 1666.08 C 1242.82 1665.93 1241.38 1666.69 1239.37 1668.35 C 1239.05 1670.41 1238.71 1671.59 1240.82 1673.19 C 1266.86 1693.03 1293.87 1711.2 1320.28 1730.63 C 1326.37 1735.11 1356.62 1754.36 1357.99 1761.34 C 1360.31 1773.17 1340.67 1787.68 1328.88 1789.15 C 1301.4 1792.58 1279.29 1768.97 1258.91 1753.5 C 1244.78 1743.32 1230.74 1733.05 1216.66 1722.8 C 1213.4 1720.42 1205.99 1718.73 1203.71 1723.17 C 1207.8 1733.21 1284.49 1780.13 1293.2 1794.46 C 1298.35 1802.92 1280.91 1814.04 1274.9 1816.01 C 1234.31 1829.31 1200.34 1776.3 1168.67 1762.03 C 1165.57 1762.28 1165.65 1762.06 1163.25 1763.94 C 1160.98 1777.3 1227.53 1804.14 1217.81 1821.27 C 1214.86 1826.58 1209.87 1830.46 1204 1832.03 C 1178.85 1838.87 1153.27 1818.7 1131.88 1806.26 C 1142.01 1789.62 1158.12 1773.3 1137.21 1753.66 C 1128.88 1745.83 1118.31 1744.2 1107.24 1743.8 C 1100.54 1717.16 1085.3 1708.45 1058.34 1711.84 C 1047.06 1686.44 1023.65 1679.88 1000.35 1694.42 C 982.639 1669.05 954.042 1668 937.355 1695.22 C 925.413 1688.42 913.543 1681.5 901.748 1674.45 L 946.124 1569.86 C 952.094 1555.89 963.754 1527 970.802 1514.53 C 976.672 1514.32 986.658 1514.27 992.124 1512.98 C 1030.28 1503.96 1062.71 1485.31 1102.49 1482.5 z"/>
<path transform="translate(0,0)" fill="rgb(39,74,220)" d="M 757.916 1128.34 C 725.135 1109.28 700.064 1089.88 676.145 1059.79 C 630.581 1002.91 609.997 930 619.086 857.687 C 634.91 723.479 751.939 622.954 884.822 622.886 C 905.264 622.875 918.841 621.533 939.816 624.138 C 934.823 641.979 933.629 649.996 931.797 668.029 C 910.271 668.221 891.927 671.209 871.509 678.425 C 822.387 693.063 777.936 732.75 753.689 777.465 C 726.516 827.105 720.441 885.587 736.831 939.753 C 744.931 966.4 758.1 991.233 775.617 1012.89 L 763.189 1025.75 L 742.39 1047.46 C 745.042 1053.43 749.042 1063.16 752.075 1068.58 C 759.369 1060.29 771.597 1048.65 780.051 1041.28 L 791.441 1031 C 805.916 1042.5 819.558 1053.71 835.427 1063.33 C 837.228 1064.42 836.95 1070.31 836.978 1072.26 L 837.005 1073.54 L 837.012 1074.31 C 837.159 1101.54 838.81 1128.28 836.814 1155.52 C 829.179 1154.3 824.348 1153.49 816.975 1151.37 C 817.106 1124.62 817.077 1097.87 816.887 1071.12 L 792.299 1070.72 L 757.361 1070.98 L 757.916 1128.34 z"/>
<path transform="translate(0,0)" fill="rgb(7,35,150)" d="M 763.189 1025.75 C 761.402 1023.98 759.685 1022.15 758.042 1020.25 C 720.28 977.571 701.258 921.504 705.253 864.656 C 709.418 808.69 735.447 756.613 777.709 719.689 C 798.191 701.888 838.882 677.248 867.981 675.037 C 869.442 674.926 870.182 676.715 871.509 678.425 C 822.387 693.063 777.936 732.75 753.689 777.465 C 726.516 827.105 720.441 885.587 736.831 939.753 C 744.931 966.4 758.1 991.233 775.617 1012.89 L 763.189 1025.75 z"/>
<path transform="translate(0,0)" fill="rgb(7,35,150)" d="M 791.441 1031 C 805.916 1042.5 819.558 1053.71 835.427 1063.33 C 837.228 1064.42 836.95 1070.31 836.978 1072.26 L 837.005 1073.54 L 837.012 1074.31 C 831.155 1074.89 818.814 1067.61 812.695 1064.68 C 801.931 1056.34 791.306 1052.31 780.051 1041.28 L 791.441 1031 z"/>
<path transform="translate(0,0)" fill="rgb(109,173,45)" d="M 1196.95 1482.2 C 1218.93 1481.47 1235.05 1484.9 1256.38 1488.14 C 1305.62 1495.61 1351.65 1510.01 1401.27 1514.31 C 1409.04 1529.54 1419.88 1557.93 1426.95 1574.73 C 1440.62 1607.18 1456.22 1641.46 1469.03 1674.02 C 1460.28 1678.79 1419.03 1700.12 1410.77 1702.77 C 1381.44 1681.57 1352.31 1660.08 1323.4 1638.31 L 1313.63 1630.82 C 1320.76 1631.6 1332.98 1633.37 1339.03 1629.71 C 1340.32 1626.68 1340.15 1628.3 1338.73 1624.62 C 1335.54 1623.28 1324.8 1623.69 1320.41 1623.11 C 1267.81 1616.12 1229.26 1593.92 1196.47 1553.8 C 1173.86 1559.69 1160.2 1557.85 1144.04 1576.43 C 1127.69 1595.23 1103.6 1610.07 1077.95 1608.24 C 1071.07 1607.75 1064.24 1607.94 1062.34 1600.19 C 1064.57 1591.05 1079.74 1573.76 1085.75 1564.79 C 1096.98 1548.9 1107.2 1527.5 1120.83 1513.84 C 1136.56 1498.07 1175.98 1487.19 1196.95 1482.2 z"/>
<path transform="translate(0,0)" fill="rgb(109,173,45)" d="M 1504.97 1457.07 L 1506.2 1457.71 C 1509.26 1464.26 1513.1 1477.29 1515.46 1484.61 L 1531.13 1533.66 C 1543.67 1573.19 1558.71 1616.7 1570.23 1656.09 C 1541.21 1663.42 1512.3 1671.19 1483.52 1679.4 L 1479.58 1670.26 C 1477.22 1663.78 1474.05 1657.36 1471.44 1650.96 C 1450.2 1599.03 1425.93 1547.9 1404.83 1495.99 C 1433.09 1483.61 1475.57 1467.83 1504.97 1457.07 z"/>
<path transform="translate(0,0)" fill="rgb(222,50,2)" d="M 739.845 1410.34 C 759.381 1409.41 771.149 1416.14 775.211 1436.5 C 780.352 1462.25 755.323 1472.83 734.04 1475.82 C 703.67 1480.1 672.856 1471.98 648.537 1453.29 C 640.494 1447.08 623.703 1435.37 633.471 1425.07 C 641.948 1428.7 644.005 1432.92 651.03 1438.85 C 666.307 1451.74 685.339 1456.13 704.853 1458.25 C 722.36 1460.29 740.425 1458.82 754.903 1447.73 C 760.048 1443.79 762.534 1434.53 755.568 1429.68 C 747.174 1423.83 721.26 1443.13 714.323 1436.21 C 697.199 1419.13 727.793 1412.05 739.845 1410.34 z"/>
<path transform="translate(0,0)" fill="rgb(222,50,2)" d="M 938.443 875.693 L 981.168 875.65 C 982.094 884.902 983.683 925.418 976.944 930.321 L 974.926 929.659 C 972.272 926.155 973.053 899.265 973.058 893.34 C 957.942 913.098 941.74 932.739 926.509 952.535 C 920.184 960.756 903.64 982.744 897.247 988.8 L 817.889 988.538 C 808.57 997.166 789.034 1020.28 779.674 1030.63 C 774.42 1035.86 760.699 1054.13 755.005 1054.56 L 752.163 1051 C 751.966 1049.17 751.509 1048.66 752.554 1047.42 C 770.706 1025.96 789.999 1005.19 808.975 984.417 C 811.135 982.052 813.512 980.274 816.668 979.804 C 826.152 978.39 836.441 979.115 846.054 979.182 C 861.979 979.432 877.907 979.341 893.827 978.909 C 900.946 971.492 915.253 952.062 922.055 943.312 L 966.818 886.606 C 957.883 886.287 947.002 888.033 940.143 884.897 C 937.724 881.334 938.59 880.896 938.443 875.693 z"/>
<path transform="translate(0,0)" fill="rgb(109,173,45)" d="M 1065.23 1720.2 C 1075.41 1719.09 1089.37 1722.18 1093.99 1732.93 C 1101.65 1750.75 1080.6 1770.29 1071.72 1784.32 C 1068.5 1789.41 1063.17 1792.68 1057.8 1794.88 C 1039.06 1796.57 1019.76 1787.07 1029.06 1764.46 C 1032.84 1757.82 1037.4 1750.76 1041.92 1744.61 C 1049.66 1734.11 1052.47 1724.75 1065.23 1720.2 z"/>
<path transform="translate(0,0)" fill="rgb(109,173,45)" d="M 1015.73 1696.2 C 1056.37 1694.78 1054.36 1722.47 1033.79 1746.56 C 1025.09 1756.74 1024.89 1764.02 1010.91 1770.24 C 975.745 1774.73 972.039 1747.43 990.837 1725.08 C 998.784 1715.63 1002.94 1701.17 1015.73 1696.2 z"/>
<path transform="translate(0,0)" fill="rgb(109,173,45)" d="M 1107.15 1753.26 C 1158.57 1751.5 1132.82 1806.96 1106.15 1815.51 C 1081.8 1816.1 1067.32 1800.38 1082.39 1778.41 C 1089.06 1768.69 1094.95 1756.24 1107.15 1753.26 z"/>
<path transform="translate(0,0)" fill="rgb(109,173,45)" d="M 960.057 1685.23 C 1003.78 1680.86 999.135 1723.58 970.634 1737.62 C 930.305 1741.58 930.973 1700.43 960.057 1685.23 z"/>
<path transform="translate(0,0)" fill="rgb(39,74,220)" d="M 896.148 1086.34 L 911.745 1088.67 C 913.162 1107.95 912.248 1138.53 912.249 1158.53 C 907.07 1158.81 901.38 1158.75 896.152 1158.81 C 894.814 1140.74 896.011 1105.49 896.148 1086.34 z"/>
<path transform="translate(0,0)" fill="rgb(39,74,220)" d="M 971.158 1085.12 C 975.053 1083.18 982.58 1081.04 986.978 1079.64 C 986.355 1094.91 986.706 1112.1 986.759 1127.45 L 987.119 1148.13 C 982.458 1149.4 977.749 1151.25 973.182 1150.4 C 971.029 1148.31 971.899 1149.55 971.348 1146.03 L 971.158 1085.12 z"/>
<path transform="translate(0,0)" fill="rgb(7,35,150)" d="M 985.74 1140.85 C 985.765 1135.23 985.824 1132.96 986.759 1127.45 L 987.119 1148.13 C 982.458 1149.4 977.749 1151.25 973.182 1150.4 C 971.029 1148.31 971.899 1149.55 971.348 1146.03 C 975.325 1145.01 981.709 1142.38 985.74 1140.85 z"/>
<path transform="translate(0,0)" fill="rgb(251,211,13)" d="M 933.186 1037.2 C 944.241 1036.59 955.618 1036.61 963.103 1046.48 C 964.223 1053.59 956.849 1054.6 951.174 1055.96 C 943.53 1056.56 918.2 1057.44 919.186 1045.3 C 922.744 1040.45 927.572 1039.1 933.186 1037.2 z"/>
<path transform="translate(0,0)" fill="rgb(251,211,13)" d="M 1017.29 999.401 C 1024.62 1000.08 1033.58 999.541 1037.07 1007.09 C 1035.91 1017.39 1023.43 1016.82 1015.49 1017.14 C 1008.5 1017.27 998.687 1017.63 995.019 1010.68 C 995.764 999.996 1009.14 1000.09 1017.29 999.401 z"/>
<path transform="translate(0,0)" fill="rgb(251,211,13)" d="M 775.467 1089.22 C 782.686 1088.49 812.001 1087.67 809.524 1098.89 C 806.925 1101.67 804.979 1102.08 801.453 1103.47 C 782.488 1108.25 744.924 1099.27 775.467 1089.22 z"/>
<path transform="translate(0,0)" fill="rgb(251,211,13)" d="M 860.047 1069.35 C 867.209 1068.69 884.388 1068.27 886.545 1076.92 L 885.21 1079.13 C 881.319 1081.96 877.827 1082.14 873.037 1083.05 C 866.799 1083.58 843.555 1084.53 845.654 1074.01 C 849.6 1069.98 854.639 1069.89 860.047 1069.35 z"/>
<path transform="translate(0,0)" fill="rgb(251,211,13)" d="M 962.22 1103.07 C 963.869 1103.04 962.944 1102.89 964.897 1103.92 C 965.791 1111.45 959.769 1114.29 953.469 1116.09 C 941.57 1119.5 932.4 1118.22 921.618 1112.42 C 920.74 1111.77 919.871 1111.1 919.013 1110.42 C 916.47 1108.36 914.767 1107.22 914.438 1104.43 C 918.203 1103.16 934.054 1107.49 940.99 1107.17 C 952.082 1106.65 951.678 1106.68 962.22 1103.07 z"/>
<path transform="translate(0,0)" fill="rgb(251,211,13)" d="M 961.636 1123.12 L 964.328 1123.28 L 965.124 1125.38 C 963.739 1133.39 959.096 1134.83 951.537 1137.32 C 941.222 1140.72 932.695 1137.85 923.394 1133.14 C 920.628 1131.05 917.456 1128.89 917.11 1125.39 C 924.328 1122.39 937.81 1132.7 961.636 1123.12 z"/>
<path transform="translate(0,0)" fill="rgb(251,211,13)" d="M 919.14 1081.72 C 934.939 1089.55 947.671 1087.33 963.416 1082.53 L 964.683 1083.53 C 965.093 1086.94 964.542 1087.69 963.308 1090.85 C 950.632 1099.61 918.205 1103.92 919.14 1081.72 z"/>
<path transform="translate(0,0)" fill="rgb(251,211,13)" d="M 919.689 1060.83 C 931.745 1066.33 939.236 1068.55 952.901 1065.39 C 956.382 1064.59 959.079 1062.93 962.705 1062.46 C 964.049 1065.44 963.59 1066.6 963.16 1069.83 C 956.435 1076.1 947.228 1078.3 938.318 1077.62 C 925.984 1076.67 919.328 1073.56 919.689 1060.83 z"/>
<path transform="translate(0,0)" fill="rgb(251,211,13)" d="M 962.876 1142.98 L 964.309 1144.33 C 965.669 1152.93 957.415 1155.35 950.144 1157.08 C 940.132 1159.47 931.054 1157.73 922.406 1152.08 C 919.564 1149.15 919.344 1148.88 917.157 1145.44 L 917.525 1144.07 C 927.497 1141.81 931.641 1155.11 962.876 1142.98 z"/>
<path transform="translate(0,0)" fill="rgb(251,211,13)" d="M 993.381 1073.38 C 1003.53 1077.14 1014.46 1080.24 1025.46 1077.76 C 1030.2 1076.69 1033.47 1074.73 1038.39 1074.49 C 1039.61 1077.28 1038.77 1079.04 1038.04 1082.06 C 1026.79 1088.51 991.788 1093.56 993.381 1073.38 z"/>
<path transform="translate(0,0)" fill="rgb(251,211,13)" d="M 1036 1145.08 C 1037.72 1145.15 1036.88 1144.88 1038.42 1146.13 C 1037.18 1163.01 1008.55 1159.38 997.347 1154.67 C 994.909 1152.07 993.81 1150.84 992.944 1147.39 C 993.228 1146.94 993.511 1146.49 993.795 1146.04 C 1000.39 1147.17 1010.65 1148.82 1016.93 1148.97 C 1025.05 1149.17 1029.28 1147.49 1036 1145.08 z"/>
<path transform="translate(0,0)" fill="rgb(251,211,13)" d="M 764.839 1133.96 L 765.382 1129 L 767.051 1127.8 C 776.403 1130.08 786.038 1133.65 794.817 1130.93 C 798.598 1129.76 805.762 1128.62 809.699 1128.87 L 810.916 1129.93 C 809.052 1138.85 793.758 1140.84 786.423 1141.34 C 777.567 1141.16 771.581 1139.79 764.839 1133.96 z"/>
<path transform="translate(0,0)" fill="rgb(251,211,13)" d="M 992.603 1021.38 C 1003.52 1023.04 1014.47 1027.87 1026.53 1024.47 C 1030.09 1023.47 1034.94 1021.7 1038.37 1022.36 C 1039.34 1024.96 1038.53 1025.31 1037.44 1028.7 C 1027.52 1035.74 1006.53 1037.49 996.24 1030.23 C 992.955 1027.91 992.998 1025.04 992.603 1021.38 z"/>
<path transform="translate(0,0)" fill="rgb(251,211,13)" d="M 992.381 1056.36 C 1001.04 1057.83 1009.92 1062.39 1020.02 1061.07 C 1026.39 1060.23 1031.98 1057.52 1038.27 1057.26 C 1039.32 1060.04 1038.56 1060.66 1037.83 1064.14 C 1025.86 1071.81 995.645 1075.74 992.381 1056.36 z"/>
<path transform="translate(0,0)" fill="rgb(251,211,13)" d="M 992.626 1109.76 C 1002.19 1112.07 1006.3 1113.3 1016.39 1113.99 C 1024.99 1114.58 1033.67 1110.06 1038.38 1111.43 C 1038.9 1114.65 1038.39 1114.32 1037.01 1117.89 C 1025.26 1124.19 993.935 1129 992.626 1109.76 z"/>
<path transform="translate(0,0)" fill="rgb(251,211,13)" d="M 765.211 1144.21 C 773.647 1147.72 776.906 1148.76 786.404 1149.72 C 796.208 1150.11 800.987 1146.48 810.699 1146.48 L 811.938 1148.05 C 804.14 1160.42 763.544 1166.83 765.211 1144.21 z"/>
<path transform="translate(0,0)" fill="rgb(251,211,13)" d="M 992.437 1038.4 C 1000.51 1040.18 1012.08 1046.04 1020.88 1043.94 C 1026.83 1042.52 1031.39 1040.38 1037.94 1039.25 L 1038.99 1040.46 L 1038.5 1045.38 C 1034.29 1049.26 1030.35 1051.07 1024.65 1051.75 C 1011.36 1053.35 995.381 1054.29 992.437 1038.4 z"/>
<path transform="translate(0,0)" fill="rgb(251,211,13)" d="M 993.414 1091.68 C 1003.67 1094.99 1005.03 1095.6 1015.87 1096.32 C 1023.44 1096.83 1035.28 1092.53 1038.14 1093.41 C 1039.34 1096.54 1038.91 1095.69 1038 1099.6 C 1026.79 1105.24 992.627 1112 993.414 1091.68 z"/>
<path transform="translate(0,0)" fill="rgb(251,211,13)" d="M 992.753 1127.66 C 1004.57 1131.01 1017.07 1133.67 1029.31 1130.47 C 1032.74 1129.57 1035.41 1128.08 1038.56 1129.36 C 1038.86 1132.64 1038.41 1132.19 1036.75 1135.69 C 1025.6 1141.2 993.17 1146.59 992.753 1127.66 z"/>
<path transform="translate(0,0)" fill="rgb(251,211,13)" d="M 765.215 1110.11 L 770.173 1111.57 C 792.584 1118.18 801.893 1110.27 812.503 1112.86 L 812.889 1113.98 L 809.44 1116.65 C 799.364 1123.18 778.092 1126.73 767.864 1118.8 C 765.121 1116.67 765.542 1113.31 765.215 1110.11 z"/>
<path transform="translate(0,0)" fill="rgb(251,211,13)" d="M 843.907 1085.8 C 857.891 1090.99 863.047 1092.69 878.27 1089.34 C 881.005 1088.74 885.806 1087.86 888.513 1088.19 C 889.27 1091.05 888.722 1090.96 887.8 1094.26 C 878.144 1099.31 854.821 1102.21 845.921 1094.08 C 843.493 1091.87 843.992 1088.79 843.907 1085.8 z"/>
<path transform="translate(0,0)" fill="rgb(251,211,13)" d="M 843.679 1146.63 C 853.129 1148.97 862.107 1151.95 872.299 1151.09 C 877.369 1150.66 883.709 1146.86 888.632 1147.54 C 889.554 1150.84 889.306 1149.13 888.027 1153.22 C 876.987 1159.63 845.346 1164.9 843.679 1146.63 z"/>
<path transform="translate(0,0)" fill="rgb(251,211,13)" d="M 842.943 1132.72 C 857.952 1133.58 868.122 1138.57 884.174 1133.22 C 886.336 1132.5 887.648 1132.64 889.321 1133.97 L 889.38 1137.12 C 877.148 1144.46 850.091 1149.08 842.943 1132.72 z"/>
<path transform="translate(0,0)" fill="rgb(251,211,13)" d="M 844.169 1118.27 C 853.722 1119.93 866.332 1122.18 875.774 1120.25 C 879.471 1119.49 885.389 1117.63 888.703 1118.54 C 889.441 1121.72 889.393 1120.06 887.565 1123.71 C 877.482 1128.41 846.448 1133.94 844.169 1118.27 z"/>
<path transform="translate(0,0)" fill="rgb(251,211,13)" d="M 843.052 1103.93 C 849.521 1103.72 861.349 1107.32 870.001 1106.54 C 875.936 1106 884.869 1102.84 888.67 1104.27 C 889.371 1107.25 889.208 1105.74 887.47 1109.43 C 876.014 1113.84 848.328 1118.56 843.052 1103.93 z"/>
</svg>